<svg width="18" height="18" viewBox="0 0 18 18" fill="none" xmlns="http://www.w3.org/2000/svg">
<path d="M4.35 8.4751L1.5 16.5001L9.525 13.6576" stroke="#8E8E93" stroke-linecap="round" stroke-linejoin="round"/>
<path d="M3 2.25H3.00904" stroke="#8E8E93" stroke-linecap="round" stroke-linejoin="round"/>
<path d="M16.5 6H16.509" stroke="#8E8E93" stroke-linecap="round" stroke-linejoin="round"/>
<path d="M11.25 1.5H11.259" stroke="#8E8E93" stroke-linecap="round" stroke-linejoin="round"/>
<path d="M16.5 15H16.509" stroke="#8E8E93" stroke-linecap="round" stroke-linejoin="round"/>
<path d="M16.5 1.5L14.82 2.0625C14.3418 2.22179 13.9337 2.54223 13.6656 2.96904C13.3975 3.39586 13.2859 3.90254 13.35 4.4025C13.425 5.0475 12.9225 5.625 12.2625 5.625H11.9775C11.3325 5.625 10.7775 6.075 10.6575 6.705L10.5 7.5" stroke="#8E8E93" stroke-linecap="round" stroke-linejoin="round"/>
<path d="M16.5 9.75019L15.885 9.50269C15.24 9.24769 14.52 9.65269 14.4 10.3352C14.3175 10.8602 13.86 11.2502 13.3275 11.2502H12.75" stroke="#8E8E93" stroke-linecap="round" stroke-linejoin="round"/>
<path d="M8.25 1.5L8.4975 2.115C8.7525 2.76 8.3475 3.48 7.665 3.6C7.14 3.675 6.75 4.14 6.75 4.6725V5.25" stroke="#8E8E93" stroke-linecap="round" stroke-linejoin="round"/>
<path d="M8.2494 9.74989C9.6969 11.1974 10.3719 12.8774 9.7494 13.4999C9.1269 14.1224 7.4469 13.4474 5.9994 11.9999C4.5519 10.5524 3.8769 8.87239 4.4994 8.24989C5.1219 7.62739 6.8019 8.30239 8.2494 9.74989Z" stroke="#8E8E93" stroke-linecap="round" stroke-linejoin="round"/>
</svg>
