<svg width="18" height="18" viewBox="0 0 18 18" fill="none" xmlns="http://www.w3.org/2000/svg">
<path fill-rule="evenodd" clip-rule="evenodd" d="M9 1.5C4.85786 1.5 1.5 4.85786 1.5 9C1.5 13.1421 4.85786 16.5 9 16.5C13.1421 16.5 16.5 13.1421 16.5 9C16.5 4.85786 13.1421 1.5 9 1.5ZM11.6854 7.4812C11.8821 7.24075 11.8466 6.88637 11.6062 6.68965C11.3657 6.49293 11.0114 6.52837 10.8146 6.7688L7.83322 10.4128L6.77275 9.35227C6.55308 9.1326 6.19692 9.1326 5.97725 9.35227C5.75758 9.57195 5.75758 9.92805 5.97725 10.1477L7.47725 11.6477C7.58963 11.7602 7.74428 11.8197 7.90305 11.8118C8.06175 11.8039 8.20972 11.7292 8.31037 11.6062L11.6854 7.4812Z" fill="#00FB43"/>
</svg>
