<svg width="14" height="17" viewBox="0 0 14 17" fill="none" xmlns="http://www.w3.org/2000/svg">
<mask id="mask0_727_2212" style="mask-type:luminance" maskUnits="userSpaceOnUse" x="0" y="0" width="14" height="17">
<path d="M14 0.264709H0V16.7353H14V0.264709Z" fill="white"/>
</mask>
<g mask="url(#mask0_727_2212)">
<path fill-rule="evenodd" clip-rule="evenodd" d="M8.43434 6.13186C8.94419 5.88063 9.59288 5.51081 10.2424 5.00412C10.3794 5.28517 10.3943 5.53041 10.3238 5.72844C10.2738 5.868 10.1796 5.98939 10.0557 6.08597C9.92147 6.19033 9.75396 6.26632 9.56875 6.30738C9.21727 6.38562 8.8069 6.33994 8.43434 6.13186ZM8.5227 8.70597L9.19759 9.09122C7.81961 9.85446 7.445 11.2718 7 12.6522C6.55505 11.2718 6.18039 9.85446 4.80244 9.09122L5.47733 8.70597C5.54262 8.68159 5.59842 8.63745 5.63675 8.5798C5.67506 8.52216 5.69394 8.45399 5.69066 8.3851C5.62883 7.09232 5.98205 6.52063 6.4585 6.16167C6.62939 6.0331 6.81594 5.96853 7 5.96853C7.18405 5.96853 7.37061 6.0331 7.54155 6.16167C8.018 6.52063 8.37126 7.09232 8.30941 8.3851C8.30612 8.45399 8.32498 8.52216 8.36327 8.5798C8.40165 8.63745 8.4574 8.68159 8.5227 8.70597ZM7 0.264709C7.78011 0.285407 8.56215 0.435071 9.2409 0.726215C9.71089 0.92809 10.1494 1.19475 10.5465 1.51362C10.7259 1.65757 10.8736 1.79664 11.0362 1.95673C11.475 1.97172 12.1161 1.49006 12.4138 1.03938C11.9015 2.69906 9.56381 4.65901 7.94544 5.40897L7.94383 5.40798C7.65339 5.18881 7.32672 5.07923 7 5.07923C6.67327 5.07923 6.34667 5.18881 6.05622 5.40798L6.05461 5.40897C4.43616 4.65901 2.09855 2.69906 1.58627 1.03938C1.88389 1.49006 2.52506 1.97172 2.96377 1.95673C3.1265 1.7967 3.27416 1.65757 3.45345 1.51362C3.85055 1.19475 4.28911 0.92809 4.75911 0.726215C5.43789 0.435071 6.21994 0.285407 7 0.264709ZM5.56567 6.13186C5.05589 5.88063 4.40711 5.51081 3.75767 5.00412C3.62072 5.28517 3.60572 5.53041 3.67622 5.72844C3.72627 5.868 3.8205 5.98939 3.94433 6.08597C4.07855 6.19033 4.24611 6.26632 4.43133 6.30738C4.78278 6.38562 5.19305 6.33994 5.56567 6.13186Z" fill="#878787"/>
<path fill-rule="evenodd" clip-rule="evenodd" d="M10.9537 4.38327C11.3113 4.02668 11.6263 3.63198 11.8797 3.27979L12.0083 3.5191C12.4225 4.33808 12.6378 5.15376 12.6378 6.07171L12.6369 7.52837L12.6446 8.2835C12.6747 10.1373 13.0805 12.013 14 13.7294L12.0763 12.1964L10.7151 14.3793L9.28513 13.049L7 16.7136L4.71489 13.049L3.28494 14.3793L1.92378 12.1964L0 13.7294C0.919446 12.013 1.32533 10.1374 1.35539 8.28355L1.36316 7.52843L1.36227 6.07177C1.36227 5.15376 1.57745 4.33808 1.99178 3.51916L2.12039 3.27984C2.37372 3.63204 2.68872 4.02668 3.04633 4.38331L2.93466 4.61254C2.71772 5.05774 2.64589 5.55553 2.81489 6.02895C2.92383 6.33388 3.12267 6.59537 3.379 6.795C3.62789 6.98885 3.92245 7.11952 4.23083 7.18815C4.43173 7.23284 4.63639 7.25123 4.83973 7.24497C4.79227 7.51075 4.77155 7.78642 4.77022 8.06729L2.95556 9.1031L4.35589 9.87878C4.46781 9.9408 4.57436 10.0119 4.67444 10.0912C5.82894 11.1156 6.52305 14.146 7.00006 15.6262C7.47711 14.146 8.17117 11.1156 9.32573 10.0912C9.42579 10.0119 9.53235 9.9408 9.64427 9.87878L11.0446 9.1031L9.22987 8.06729C9.22855 7.78642 9.2078 7.51075 9.16036 7.24497C9.36369 7.25123 9.56842 7.23284 9.76928 7.18815C10.0777 7.11952 10.3723 6.98885 10.6211 6.795C10.8774 6.59537 11.0763 6.33388 11.1852 6.02895C11.3542 5.55553 11.2824 5.05779 11.0654 4.61254L10.9537 4.38327Z" fill="#878787"/>
</g>
</svg>
