<svg width="20" height="20" viewBox="0 0 20 20" fill="none" xmlns="http://www.w3.org/2000/svg">
<path d="M16.2264 4.53455C15.0882 4.0107 13.8866 3.63907 12.6523 3.42914C12.4833 3.73266 12.3306 4.04495 12.1945 4.3647C10.8797 4.16554 9.54267 4.16554 8.22798 4.3647C8.0918 4.04499 7.93898 3.7327 7.77015 3.42914C6.5351 3.64084 5.33271 4.01336 4.19338 4.53729C1.93149 7.90146 1.31832 11.1821 1.6249 14.4161C2.94952 15.3999 4.43215 16.1483 6.00833 16.6283C6.36325 16.1485 6.6773 15.6394 6.94715 15.1065C6.4346 14.9141 5.93989 14.6766 5.46875 14.397C5.59275 14.3066 5.71402 14.2134 5.8312 14.123C7.2021 14.7711 8.69832 15.1071 10.2133 15.1071C11.7282 15.1071 13.2244 14.7711 14.5953 14.123C14.7139 14.2203 14.8351 14.3134 14.9578 14.397C14.4858 14.6771 13.9902 14.915 13.4767 15.1079C13.7462 15.6405 14.0602 16.1491 14.4154 16.6283C15.993 16.1501 17.4768 15.4022 18.8016 14.4175C19.1613 10.6671 18.1871 7.41656 16.2264 4.53455ZM7.33549 12.4272C6.48115 12.4272 5.77533 11.6478 5.77533 10.689C5.77533 9.73013 6.45662 8.94386 7.33276 8.94386C8.2089 8.94386 8.90928 9.73013 8.89431 10.689C8.87928 11.6478 8.20618 12.4272 7.33549 12.4272ZM13.091 12.4272C12.2353 12.4272 11.5323 11.6478 11.5323 10.689C11.5323 9.73013 12.2135 8.94386 13.091 8.94386C13.9686 8.94386 14.6635 9.73013 14.6485 10.689C14.6335 11.6478 13.9617 12.4272 13.091 12.4272Z" fill="#878787"/>
</svg>
