<svg width="72" height="47" viewBox="0 0 72 47" fill="none" xmlns="http://www.w3.org/2000/svg">
<g clip-path="url(#clip0_559_1705)">
<path d="M36 46.125C55.8823 46.125 72 42.5992 72 38.25C72 33.9008 55.8823 30.375 36 30.375C16.1177 30.375 0 33.9008 0 38.25C0 42.5992 16.1177 46.125 36 46.125Z" fill="#1F1F1F"/>
<path d="M61.875 15.48L50.4608 2.54025C49.9129 1.65825 49.113 1.125 48.2704 1.125H23.7296C22.887 1.125 22.0871 1.65825 21.5392 2.53912L10.125 15.4811V25.875H61.875V15.48Z" stroke="#757575" stroke-width="1.125"/>
<path d="M46.8146 19.0474C46.8146 17.2417 47.9329 15.7511 49.32 15.75H61.875V36.1541C61.875 38.5425 60.39 40.5 58.5562 40.5H13.4437C11.61 40.5 10.125 38.5414 10.125 36.1541V15.75H22.68C24.0671 15.75 25.1854 17.2384 25.1854 19.044V19.0687C25.1854 20.8744 26.316 22.3324 27.702 22.3324H44.298C45.684 22.3324 46.8146 20.8609 46.8146 19.0552V19.0474Z" fill="#1F1F1F" stroke="#757575" stroke-width="1.125"/>
</g>
<defs>
<clipPath id="clip0_559_1705">
<rect width="72" height="46.125" fill="white"/>
</clipPath>
</defs>
</svg>
