<svg width="24" height="11" viewBox="0 0 24 11" fill="none" xmlns="http://www.w3.org/2000/svg">
<path d="M12.012 8.74282C10.6514 8.70056 8.64959 9.72692 7.91846 10.216C8.13095 5.50979 10.6576 2.03895 11.952 0.838702C11.9868 0.806446 12.0387 0.807038 12.0741 0.838598C14.7325 3.20733 15.8924 8.07272 16.1407 10.216C15.2649 9.76213 13.3726 8.78508 12.012 8.74282Z" fill="#00BCFB"/>
<path d="M7.15475 9.89864C4.11838 7.6845 1.57535 9.15863 0.35376 10.0513C1.68694 3.74956 7.4993 1.47082 10.3967 1.10081C8.0357 3.86702 7.44057 7.67471 7.15475 9.89864Z" fill="#00BCFB"/>
<path d="M16.8453 9.89864C19.8816 7.6845 22.4246 9.15863 23.6462 10.0513C22.3131 3.74956 16.5007 1.47082 13.6033 1.10081C15.9643 3.86702 16.5594 7.67471 16.8453 9.89864Z" fill="#00BCFB"/>
</svg>
