<svg width="24" height="10" viewBox="0 0 24 10" fill="none" xmlns="http://www.w3.org/2000/svg">
<path d="M11.6582 7.95887C10.2976 7.91661 8.29583 8.94297 7.5647 9.43209C7.77719 4.72585 10.3038 1.25501 11.5983 0.0547586C11.6331 0.0225028 11.685 0.023095 11.7204 0.0546553C14.3787 2.42339 15.5387 7.28878 15.787 9.43209C14.9112 8.97819 13.0188 8.00113 11.6582 7.95887Z" fill="white"/>
<path d="M6.80099 9.11469C3.76462 6.90056 1.22159 8.37469 0 9.26739C1.33318 2.96562 7.14554 0.686873 10.0429 0.316872C7.68194 3.08308 7.08681 6.89077 6.80099 9.11469Z" fill="white"/>
<path d="M16.4915 9.11469C19.5279 6.90056 22.0709 8.37469 23.2925 9.26739C21.9593 2.96562 16.1469 0.686873 13.2496 0.316872C15.6105 3.08308 16.2057 6.89077 16.4915 9.11469Z" fill="white"/>
</svg>
