<svg width="18" height="18" viewBox="0 0 18 18" fill="none" xmlns="http://www.w3.org/2000/svg">
<path fill-rule="evenodd" clip-rule="evenodd" d="M7.05771 2.59286C7.92593 1.10447 10.0765 1.10447 10.9447 2.59285L16.2082 11.6159C17.0831 13.1159 16.0012 14.9996 14.2646 14.9996H3.73777C2.00124 14.9996 0.919273 13.1159 1.79426 11.6159L7.05771 2.59286ZM9.00196 5.99963C9.41618 5.99963 9.75196 6.33542 9.75196 6.74963V8.99963C9.75196 9.41386 9.41618 9.74963 9.00196 9.74963C8.58773 9.74963 8.25196 9.41386 8.25196 8.99963V6.74963C8.25196 6.33542 8.58773 5.99963 9.00196 5.99963ZM8.06446 11.2496C8.06446 10.7318 8.48416 10.3121 9.00196 10.3121C9.51976 10.3121 9.93946 10.7318 9.93946 11.2496C9.93946 11.7674 9.51976 12.1871 9.00196 12.1871C8.48416 12.1871 8.06446 11.7674 8.06446 11.2496Z" fill="#FB0054"/>
</svg>
